<?xml version="1.0" encoding="utf-8"?>
<!-- Generator: Adobe Illustrator 22.0.1, SVG Export Plug-In . SVG Version: 6.00 Build 0)  -->
<svg version="1.1" id="Logo" xmlns="http://www.w3.org/2000/svg" xmlns:xlink="http://www.w3.org/1999/xlink" x="0px" y="0px"
	 viewBox="0 0 24 24" style="enable-background:new 0 0 24 24;" xml:space="preserve">
<style type="text/css">
	.st0{fill:#00796B;}
</style>
<g id="Konturlinie">
	<path class="st0" d="M12,2.5c0.2,0,0.4,0.1,0.5,0.3l8.9,17.8c0.2,0.4-0.1,0.8-0.5,0.8c-0.1,0-0.2,0-0.3-0.1l-8.4-4.2
		c-0.1,0-0.2-0.1-0.3-0.1c0,0,0,0,0,0c-0.1,0-0.2,0-0.3,0.1l-8.4,4.2c-0.1,0-0.2,0.1-0.3,0.1c-0.4,0-0.7-0.4-0.5-0.8l8.9-17.8
		C11.6,2.7,11.8,2.5,12,2.5 M12,1L12,1c-0.8,0-1.5,0.4-1.9,1.2L1.2,19.9c-0.3,0.7-0.3,1.4,0.1,2c0.4,0.6,1.1,1,1.8,1
		c0.3,0,0.6-0.1,0.9-0.2l7.9-4l7.9,4c0.3,0.1,0.6,0.2,0.9,0.2c0.7,0,1.4-0.4,1.8-1c0.4-0.6,0.4-1.4,0.1-2L13.9,2.2
		C13.5,1.4,12.8,1,12,1L12,1z"/>
	<g>
		<path class="st0" d="M12,7.1l0,8.2c0,0.2-0.1,0.4-0.3,0.5l-5.5,2.7c-0.1,0-0.2,0.1-0.3,0.1c-0.4,0-0.7-0.4-0.5-0.8l5.5-10.9
			c0.1-0.2,0.3-0.3,0.5-0.3C11.7,6.5,12,6.7,12,7.1z"/>
	</g>
</g>
</svg>
