<?xml version="1.0" encoding="utf-8"?>
<!-- Generator: Adobe Illustrator 22.0.1, SVG Export Plug-In . SVG Version: 6.00 Build 0)  -->
<svg version="1.1" id="Logo" xmlns="http://www.w3.org/2000/svg" xmlns:xlink="http://www.w3.org/1999/xlink" x="0px" y="0px"
	 viewBox="0 0 24 24" style="enable-background:new 0 0 24 24;" xml:space="preserve">
<style type="text/css">
	.st0{fill:#00796B;}
	.st1{fill:#FFFFFF;}
</style>
<g>
	<path class="st0" d="M12,23.5C5.6,23.5,0.5,18.4,0.5,12S5.6,0.5,12,0.5S23.5,5.6,23.5,12S18.4,23.5,12,23.5z"/>
	<path class="st1" d="M12,0.9c6.1,0,11.1,5,11.1,11.1s-5,11.1-11.1,11.1S0.9,18.1,0.9,12S5.9,0.9,12,0.9 M12,0C5.4,0,0,5.4,0,12
		s5.4,12,12,12s12-5.4,12-12S18.6,0,12,0L12,0z"/>
</g>
<g>
	<path class="st1" d="M17.5,6.1c0.1,0,0.2,0,0.3,0.1c0.1,0.1,0.1,0.2,0.1,0.4l-4.4,13.1c-0.1,0.2-0.2,0.3-0.4,0.3
		c-0.1,0-0.2,0-0.3-0.1c0,0-0.1-0.1-0.1-0.2l-2.1-6.2c0-0.1-0.1-0.1-0.1-0.2c0,0-0.1-0.1-0.2-0.1l-6.2-2.1c-0.1,0-0.1-0.1-0.2-0.1
		C4,10.9,4,10.5,4.3,10.5l13.1-4.4C17.5,6.1,17.5,6.1,17.5,6.1 M17.5,5c-0.2,0-0.3,0-0.5,0.1L4,9.4c-0.5,0.2-0.8,0.6-1,1
		c-0.1,0.5,0,1,0.4,1.4C3.6,12,3.8,12.1,4,12.2l5.8,1.9l1.9,5.8c0.1,0.2,0.2,0.4,0.4,0.6c0.3,0.3,0.6,0.4,1,0.4c0.6,0,1.2-0.4,1.4-1
		l4.4-13.1c0.2-0.5,0-1.1-0.4-1.5C18.3,5.2,17.9,5,17.5,5L17.5,5z"/>
</g>
<g>
	<path class="st1" d="M15.6,8.4l-4,4c-0.1,0.1-0.3,0.1-0.4,0.1l-4-1.3c-0.1,0-0.1-0.1-0.2-0.1c-0.2-0.2-0.1-0.5,0.2-0.6l8-2.7
		c0.2-0.1,0.3,0,0.4,0.1C15.7,8,15.8,8.2,15.6,8.4z"/>
</g>
</svg>
