<?xml version="1.0" encoding="utf-8"?>
<!-- Generator: Adobe Illustrator 22.0.1, SVG Export Plug-In . SVG Version: 6.00 Build 0)  -->
<svg version="1.1" id="Logo" xmlns="http://www.w3.org/2000/svg" xmlns:xlink="http://www.w3.org/1999/xlink" x="0px" y="0px"
	 viewBox="0 0 24 24" style="enable-background:new 0 0 24 24;" xml:space="preserve">
<style type="text/css">
	.st0{fill:#00796B;}
	.st1{fill:#FFFFFF;}
	.st2{fill:#6AB789;}
</style>
<g>
	<circle class="st0" cx="12" cy="12" r="12"/>
	<path class="st1" d="M12,0.9c6.1,0,11.1,5,11.1,11.1s-5,11.1-11.1,11.1S0.9,18.1,0.9,12S5.9,0.9,12,0.9 M12,0C5.4,0,0,5.4,0,12
		s5.4,12,12,12s12-5.4,12-12S18.6,0,12,0L12,0z"/>
</g>
<path class="st2" d="M14.9,17.6c-0.4,0.1-0.8,0-1.1-0.3c-0.1-0.1-0.2-0.3-0.3-0.5l-1.6-4.8l-4.8-1.6c-0.2-0.1-0.3-0.2-0.5-0.3
	C6.4,9.9,6.3,9.5,6.4,9.1c0-0.1,0.1-0.3,0.2-0.4l-5.4,5.4C2,18.5,5.5,22,9.9,22.9l5.4-5.4C15.2,17.5,15.1,17.6,14.9,17.6z"/>
<polygon class="st1" points="10.9,13.9 10.2,13.7 10,13.1 10.4,12.6 11.1,12.7 11.4,13.3 "/>
<polygon class="st1" points="5.3,19.5 4.9,19.5 4.7,19.1 5,18.7 5.4,18.8 5.6,19.2 "/>
<polygon class="st1" points="8.1,18.9 7.2,19 6.7,18.3 7,17.5 7.8,17.4 8.4,18 "/>
<polygon class="st1" points="11.6,16.9 11.6,17.9 10.8,18.3 10,17.8 10,16.9 10.8,16.4 "/>
<polygon class="st1" points="6.6,14.6 6.6,15.3 6,15.7 5.3,15.3 5.3,14.6 6,14.2 "/>
<circle class="st1" cx="8.8" cy="15.3" r="0.7"/>
<circle class="st1" cx="7.5" cy="12.5" r="1"/>
<circle class="st1" cx="12.2" cy="15.7" r="0.4"/>
<circle class="st1" cx="5" cy="17.3" r="0.5"/>
<g>
	<path class="st2" d="M18.1,5.5L7.4,9.1C7.2,9.1,7.1,9.4,7.3,9.6c0,0,0.1,0.1,0.1,0.1l5,1.7c0,0,0.1,0,0.1,0.1c0,0,0.1,0.1,0.1,0.1
		l1.7,5c0,0.1,0,0.1,0.1,0.1c0.2,0.2,0.4,0.1,0.5-0.1l3.6-10.7c0-0.1,0-0.2-0.1-0.3C18.4,5.5,18.2,5.4,18.1,5.5z"/>
	<path class="st1" d="M18.2,5.5c0.1,0,0.2,0,0.2,0.1c0.1,0.1,0.1,0.2,0.1,0.3l-3.6,10.7c0,0.1-0.2,0.2-0.3,0.2c-0.1,0-0.2,0-0.2-0.1
		c0,0-0.1-0.1-0.1-0.1l-1.7-5c0,0,0-0.1-0.1-0.1c0,0-0.1-0.1-0.1-0.1l-5-1.7c-0.1,0-0.1,0-0.1-0.1C7.1,9.4,7.2,9.1,7.4,9.1l10.7-3.6
		C18.1,5.5,18.2,5.5,18.2,5.5 M18.2,4.6c-0.1,0-0.3,0-0.4,0.1L7.1,8.2C6.7,8.4,6.4,8.7,6.3,9.1c-0.1,0.4,0,0.8,0.3,1.1
		c0.1,0.1,0.3,0.2,0.5,0.3l4.8,1.6l1.6,4.8c0.1,0.2,0.2,0.3,0.3,0.5c0.2,0.2,0.5,0.3,0.8,0.3c0.5,0,1-0.3,1.1-0.8l3.6-10.7
		c0.1-0.4,0-0.9-0.3-1.2C18.8,4.7,18.5,4.6,18.2,4.6L18.2,4.6z"/>
</g>
<g>
	<path class="st1" d="M16.6,7.4l-3.3,3.3c-0.1,0.1-0.2,0.1-0.3,0.1L9.7,9.6c-0.1,0-0.1,0-0.1-0.1C9.4,9.4,9.5,9.1,9.7,9l6.6-2.2
		c0.1,0,0.2,0,0.3,0.1C16.7,7,16.8,7.2,16.6,7.4z"/>
</g>
</svg>
