<?xml version="1.0" encoding="utf-8"?>
<!-- Generator: Adobe Illustrator 22.0.1, SVG Export Plug-In . SVG Version: 6.00 Build 0)  -->
<svg version="1.1" id="Ebene_1" xmlns="http://www.w3.org/2000/svg" xmlns:xlink="http://www.w3.org/1999/xlink" x="0px" y="0px"
	 viewBox="0 0 24 24" style="enable-background:new 0 0 24 24;" xml:space="preserve">
<style type="text/css">
	.st0{display:none;}
	.st1{fill:url(#SVGID_1_);}
	.st2{display:inline;fill:url(#SVGID_2_);}
	.st3{fill:url(#SVGID_3_);}
</style>
<g id="Arrow" class="st0">
	
		<linearGradient id="SVGID_1_" gradientUnits="userSpaceOnUse" x1="12" y1="21" x2="12" y2="3" gradientTransform="matrix(1 0 0 -1 0 24)">
		<stop  offset="0" style="stop-color:#FF6315"/>
		<stop  offset="0.5132" style="stop-color:#FFE32A"/>
		<stop  offset="1" style="stop-color:#36CCA1"/>
	</linearGradient>
	<path class="st1" d="M12,3.9c0.2,0,0.3,0.1,0.4,0.3L20,19.4c0.2,0.3-0.1,0.7-0.4,0.7c-0.1,0-0.1,0-0.2-0.1l-7.2-3.6
		c-0.1,0-0.1-0.1-0.2-0.1c-0.1,0-0.1,0-0.2,0.1L4.6,20c-0.1,0-0.1,0.1-0.2,0.1c-0.3,0-0.6-0.4-0.4-0.7l7.6-15.2
		C11.7,4,11.8,3.9,12,3.9 M6.8,17.6c0.1,0,0.1,0,0.2-0.1l4.7-2.3c0.2-0.1,0.3-0.2,0.3-0.4v-7c0-0.3-0.2-0.5-0.5-0.5
		c-0.2,0-0.3,0.1-0.4,0.3L6.4,17C6.2,17.3,6.5,17.6,6.8,17.6 M12,3c-0.5,0-1,0.3-1.2,0.8L3.1,19c-0.2,0.4-0.2,0.9,0.1,1.3
		C3.5,20.7,3.9,21,4.4,21c0.2,0,0.4,0,0.6-0.1l7-3.5l7,3.5c0.2,0.1,0.4,0.1,0.6,0.1c0.5,0,0.9-0.3,1.2-0.7c0.3-0.4,0.3-0.9,0.1-1.3
		L13.2,3.8C13,3.3,12.5,3,12,3L12,3z M7.8,16.2l3.3-6.6v5L7.8,16.2L7.8,16.2z"/>
	
		<linearGradient id="SVGID_2_" gradientUnits="userSpaceOnUse" x1="3" y1="12" x2="21" y2="12" gradientTransform="matrix(1 0 0 -1 0 24)">
		<stop  offset="0" style="stop-color:#FF6315"/>
		<stop  offset="0.5132" style="stop-color:#FFE32A"/>
		<stop  offset="1" style="stop-color:#36CCA1"/>
	</linearGradient>
	<path class="st2" d="M12,4c0.2,0,0.3,0.1,0.4,0.3L20,19.4c0.2,0.3-0.1,0.7-0.4,0.7c-0.1,0-0.1,0-0.2-0.1l-7.1-3.6
		c-0.1,0-0.1-0.1-0.2-0.1s-0.1,0-0.2,0.1L4.6,20c0,0-0.1,0-0.2,0c-0.3,0-0.6-0.4-0.4-0.7l7.6-15.1C11.7,4,11.8,4,12,4 M6.9,17.6
		c0.1,0,0.1,0,0.2-0.1l4.7-2.3c0.2-0.1,0.3-0.2,0.3-0.4v-7c0-0.3-0.2-0.5-0.5-0.5c-0.2,0-0.3,0.1-0.4,0.3l-4.7,9.3
		C6.3,17.2,6.5,17.6,6.9,17.6 M12,3c-0.5,0-1,0.3-1.3,0.8L3.2,18.9c-0.2,0.4-0.2,1,0.1,1.4C3.5,20.7,3.9,21,4.4,21
		c0.2,0,0.4-0.1,0.6-0.2l6.9-3.5l6.9,3.5c0.2,0.1,0.4,0.2,0.6,0.2c0.5,0,1-0.3,1.2-0.7c0.3-0.4,0.3-0.9,0.1-1.4L13.3,3.8
		C13,3.3,12.5,3,12,3L12,3z M7.9,16L11,9.8v4.7L7.9,16L7.9,16z"/>
</g>
<linearGradient id="SVGID_3_" gradientUnits="userSpaceOnUse" x1="12" y1="3.0012" x2="12" y2="20.9988">
	<stop  offset="0" style="stop-color:#DD1800"/>
	<stop  offset="0.5143" style="stop-color:#EEB600"/>
	<stop  offset="1" style="stop-color:#00796B"/>
</linearGradient>
<path class="st3" d="M12,4.2c0.2,0,0.3,0.1,0.4,0.3l7.3,14.6c0.2,0.3-0.1,0.7-0.4,0.7c-0.1,0-0.1,0-0.2-0.1l-6.9-3.4
	c-0.1,0-0.1,0-0.2,0s-0.1,0-0.2,0l-6.9,3.4c-0.1,0-0.1,0.1-0.2,0.1c-0.3,0-0.6-0.3-0.4-0.7l7.3-14.6C11.7,4.3,11.8,4.2,12,4.2
	 M7,17.4c0.1,0,0.1,0,0.2-0.1l4.5-2.2c0.2-0.1,0.3-0.2,0.3-0.4V7.9c0-0.3-0.2-0.5-0.5-0.5c-0.2,0-0.3,0.1-0.4,0.3l-4.5,9
	C6.5,17,6.7,17.4,7,17.4 M12,3c-0.6,0-1.2,0.4-1.5,0.9L3.2,18.5c-0.3,0.5-0.2,1.1,0.1,1.6C3.6,20.7,4.1,21,4.7,21
	c0.3,0,0.5-0.1,0.8-0.2l6.5-3.3l6.5,3.3c0.2,0.1,0.5,0.2,0.8,0.2c0.6,0,1.1-0.3,1.4-0.8c0.3-0.5,0.3-1.1,0.1-1.6L13.5,3.9
	C13.2,3.4,12.6,3,12,3L12,3z M8.8,15.2l2-4v3L8.8,15.2L8.8,15.2z"/>
</svg>
