<?xml version="1.0" encoding="utf-8"?>
<!-- Generator: Adobe Illustrator 23.0.1, SVG Export Plug-In . SVG Version: 6.00 Build 0)  -->
<svg version="1.1" id="Layer_1" xmlns="http://www.w3.org/2000/svg" xmlns:xlink="http://www.w3.org/1999/xlink" x="0px" y="0px"
	 viewBox="0 0 24 24" style="enable-background:new 0 0 24 24;" xml:space="preserve">
<style type="text/css">
	.st0{fill:none;}
</style>
<path class="st0" d="M0,0h24v24H0V0z"/>
<path d="M3,8.4h14.3v2.4H3V8.4z M3,3.7h14.3v2.4H3V3.7z M3,13.2h9.5v2.4H3V13.2z"/>
<path d="M17.4,12.1l1.1,2.1c0,0,0.1,0.1,0.1,0.1l2.4,0.3c0.1,0,0.1,0.1,0.1,0.1c0,0,0,0.1,0,0.1l-1.7,1.7c0,0,0,0.1,0,0.1l0.4,2.3
	c0,0.1,0,0.1-0.1,0.2c0,0-0.1,0-0.1,0L17.3,18c0,0-0.1,0-0.1,0l-2.1,1.1c-0.1,0-0.1,0-0.2-0.1c0,0,0-0.1,0-0.1l0.4-2.3
	c0,0,0-0.1,0-0.1l-1.7-1.7c-0.1-0.1-0.1-0.1,0-0.2c0,0,0,0,0.1,0l2.4-0.3c0,0,0.1,0,0.1-0.1l1.1-2.1C17.2,12,17.3,12,17.4,12.1
	C17.3,12,17.4,12,17.4,12.1z"/>
<rect x="3" y="17.9" width="10.9" height="2.4"/>
</svg>
