<?xml version="1.0" encoding="utf-8"?>
<!-- Generator: Adobe Illustrator 22.0.1, SVG Export Plug-In . SVG Version: 6.00 Build 0)  -->
<svg version="1.1" id="Ebene_1" xmlns="http://www.w3.org/2000/svg" xmlns:xlink="http://www.w3.org/1999/xlink" x="0px" y="0px"
	 viewBox="0 0 108 108" style="enable-background:new 0 0 108 108;" xml:space="preserve">
<style type="text/css">
	.st0{fill:url(#SVGID_1_);}
</style>
<g>
	<linearGradient id="SVGID_1_" gradientUnits="userSpaceOnUse" x1="54" y1="27.0284" x2="54" y2="75.0229">
		<stop  offset="0" style="stop-color:#FF6315"/>
		<stop  offset="0.5132" style="stop-color:#FFE32A"/>
		<stop  offset="1" style="stop-color:#36CCA1"/>
	</linearGradient>
	<path class="st0" d="M54,29c0.5,0,0.9,0.2,1.2,0.7l20.7,41.4c0.5,0.9-0.3,1.9-1.2,1.9c-0.2,0-0.4,0-0.6-0.1l-19.5-9.8
		C54.4,63,54.2,63,54,63s-0.4,0-0.6,0.1l-19.5,9.8C33.7,73,33.5,73,33.3,73c-0.9,0-1.6-1-1.2-1.9l20.7-41.4C53.1,29.3,53.5,29,54,29
		 M40,66.3c0.2,0,0.4,0,0.6-0.1l12.7-6.4c0.4-0.2,0.7-0.7,0.7-1.2V39.5c0-0.8-0.7-1.3-1.3-1.3c-0.4,0-0.9,0.2-1.1,0.7L38.8,64.4
		C38.3,65.3,39.1,66.3,40,66.3 M54,27c-1.3,0-2.4,0.7-3,1.8L30.4,70.2c-0.5,1-0.5,2.2,0.1,3.2c0.6,1,1.7,1.6,2.8,1.6
		c0.5,0,1-0.1,1.5-0.4L54,65.1l19.2,9.6c0.5,0.2,1,0.4,1.5,0.4c1.1,0,2.2-0.6,2.8-1.6c0.6-1,0.7-2.2,0.1-3.2L57,28.9
		C56.4,27.7,55.3,27,54,27L54,27z M41.5,63.4L52,42.5v15.7L41.5,63.4L41.5,63.4z"/>
</g>
</svg>
