<svg xmlns="http://www.w3.org/2000/svg" viewBox="0 0 24 24">
  <path d="M0 0h24v24H0V0z" fill="none"/>
  <path d="M8.8 2.9h.3c.3.1.4.4.6.7 1.6-.4 3.1-.4 4.7 0 .2-.3.2-.6.6-.8h.2c.4.2.7.3 1.1.5.3.2.4.5.3.8-.1.1-.1.2-.2.4.1.1.2.1.2.2.9.7 1.5 1.6 1.4 2.9 0 .6-.1 1.3-.1 1.9-.2 1.6-.4 3.2-1 4.7v.1c.2.2.4.4.7.6.3-.1.5-.3.8-.4.2-.1.4-.1.6.1.6.6 1.2 1.1 1.8 1.7.2.2.2.3.2.5-.1.2-.1.4-.2.6-.4.7-.8 1.3-1.4 1.9-.7.7-1.4 1.4-2.4 1.8h-.2l-.2-.2c-.6-.5-1.2-1.1-1.8-1.6-.3-.2-.3-.5-.2-.8.1-.2.2-.5.3-.7-.2-.2-.4-.3-.5-.5-.4.3-.7.6-1.1.8-.8.4-1.6.5-2.4.1-.4-.2-.7-.5-1.1-.7l-.2-.2c-.2.2-.4.3-.5.5.1.3.3.6.4.9.1.2.1.3-.1.5-.7.6-1.4 1.3-2.1 1.9h-.2c-.3-.1-.6-.3-.8-.5-1.1-.8-2-1.8-2.8-3-.2-.3-.3-.6-.4-.9-.1-.2 0-.3.1-.5.6-.6 1.3-1.2 1.9-1.8.1-.1.2-.1.4-.1.2.1.3.1.5.2s.3.2.5.3l.6-.6s.1-.1 0-.2c-.1 0-.2-.3-.3-.5-.6-2-.8-4.1-.9-6.3 0-.2.1-.4.1-.6.2-.8.7-1.5 1.4-2 .1 0 .1-.1.2-.1 0-.1-.1-.2-.1-.3-.2-.4-.1-.7.3-.9.3-.1.7-.3 1-.4zm8.1 5v-.5c0-.6-.2-1-.6-1.4-.3-.2-.5-.5-.8-.6-1.7-.9-3.4-1.1-5.2-.6-.8.2-1.5.5-2.2 1-.7.4-1 1-1 1.8 0 1.1.1 2.1.3 3.2.1.3.1.6.3.9.2.4.5.5 1 .4.3-.1.5-.2.8-.4.5-.4 1-.8 1.5-1 .7-.4 1.4-.4 2.1 0 .5.3 1 .6 1.4 1 .2.1.4.3.7.4.5.2.9 0 1.2-.5.1-.1.1-.3.2-.5.1-1 .2-2.1.3-3.2zm-2.5 4.6c0-.1-.1-.2-.2-.3-.5-.4-1-.8-1.6-1.1-.4-.2-.8-.2-1.2 0-.6.3-1.1.6-1.6 1.1-.1.1-.2.3-.2.5.1.5.6.6 1 .3.3-.2.7-.5 1-.7.3-.2.5-.2.8 0 .3.2.7.5 1 .7.2.1.4.2.6.1.2-.1.4-.3.4-.6z"/>
</svg>